<svg id="mupi-banner" data-name="mupi-banner" xmlns="http://www.w3.org/2000/svg" viewBox="0 0 1080 424.67">
    <defs>
        <style>.cls-1{fill:#26213f;}.cls-2{fill:#2ad2c9;}</style>
    </defs>
    <path class="cls-1"
          d="M591.34,292.15H547.69a4.08,4.08,0,0,1-4.08-4.12l.63-64.67c0-6.93-2.9-10.72-10-10.72a11.92,11.92,0,0,0-1.8.13A13.64,13.64,0,0,0,521,226.29c-.22,23.67-.62,51.61-.77,61.84a4.08,4.08,0,0,1-4.08,4H472.64a4.07,4.07,0,0,1-4.08-4.11l.42-64.68c0-6.93-2.68-10.72-9.83-10.72-.35,0-.7,0-1,0a13.8,13.8,0,0,0-12.44,13.79l-.56,61.63a4.08,4.08,0,0,1-4.07,4H397.37a4.09,4.09,0,0,1-4.08-4.11l.84-109.77a4.07,4.07,0,0,1,4.08-4.05h41.1a4.09,4.09,0,0,1,4.08,4.31h0a4.08,4.08,0,0,0,6.15,3.73c9.79-5.75,23.14-10.72,35.07-10.72,14.08,0,24.82,3.7,30.8,13.13a4,4,0,0,0,5.74,1.09c10.17-7.06,25.47-14.22,38.5-14.22,21.67,0,36.63,10.5,36.41,33.5l-.64,83.06A4.08,4.08,0,0,1,591.34,292.15Z"/>
    <path class="cls-1"
          d="M734.7,292.15H707.06l-9.62-4.52a6.83,6.83,0,0,0-8.23-1.44c-9.42,4.87-20.69,8.64-31.06,8.64-21.67,0-36.41-10.5-36.18-33.5l.56-73.21a14,14,0,0,1,14-13.9H660.3a14,14,0,0,1,14,14.15L673.78,243c0,6.93,2.68,10.72,9.83,10.72.35,0,.7,0,1,0,7.06-.54,12.37-6.71,12.44-13.79l.46-51.79a14,14,0,0,1,14-13.89h23.82a14,14,0,0,1,14,14.12l-.68,89.91A14,14,0,0,1,734.7,292.15Z"/>
    <path class="cls-1"
          d="M837.71,294.83h-6.6a3,3,0,0,0-3,3l-.39,43.8a3,3,0,0,1-3,3h-46a3,3,0,0,1-3-3l1.08-164.36a3,3,0,0,1,3-3h43.66a3,3,0,0,1,3,3.14c0,.39,0,.78,0,1.15a3,3,0,0,0,4.68,2.61c6.07-3.9,17.19-9.58,30.53-9.58,34.4,0,48.69,21.44,48.69,55.61C910.3,273.83,875.24,294.83,837.71,294.83Zm4-87.33a12.91,12.91,0,0,0-1.76.13,14,14,0,0,0-11.71,13.8l-.34,36.19a3,3,0,0,0,3.32,3h0c16.75,0,25.23-12.29,25.23-31.49C856.47,217.55,852.9,207.5,841.73,207.5Z"/>
    <path class="cls-1"
          d="M964.48,292.15H948.85a18.1,18.1,0,0,1-18.09-18.23l.62-81.74a18.1,18.1,0,0,1,18.09-18H965.1a18.09,18.09,0,0,1,18.09,18.23l-.62,81.74A18.09,18.09,0,0,1,964.48,292.15Zm1.1-134H949.94a18.1,18.1,0,0,1-18.09-18.2h0a18.09,18.09,0,0,1,18.09-18h15.64a18.1,18.1,0,0,1,18.09,18.2h0A18.1,18.1,0,0,1,965.58,158.14Z"/>
    <path class="cls-2"
          d="M315.47,169a5.24,5.24,0,0,1,5.23-5.23h3.85a4.56,4.56,0,0,1,.92.09h.06a8.61,8.61,0,0,0,8.53-9.48,8.85,8.85,0,0,0-8.93-7.72,3,3,0,0,1-3-3v-1.47a3,3,0,0,1,3-3h4.68a8.44,8.44,0,0,0,8.36-9.28,8.66,8.66,0,0,0-8.75-7.55h-7.26v0a3.83,3.83,0,0,1,0-7.64v0h.22v.06h26.26V80l-85.7,94.16H182L96.33,80v94.16l31.94,48.51L138.94,263l73.43,48.16H232.6L306,263,316.7,222.7l31.94-48.51H320.7A5.25,5.25,0,0,1,315.47,169Z"/>
</svg>