<svg id="mupi-logo-with-text" data-name="mupi-logo-with-text" xmlns="http://www.w3.org/2000/svg" viewBox="0 0 1080 1080">
    <defs>
        <style>.cls-1{fill:#2ad2c9;}</style>
    </defs>
    <path class="cls-1"
          d="M910,302.75V201L658.65,477.14H421.35L170,201V477.14l93.67,142.29L295,737.75,510.34,879h59.32L785,737.75l31.29-118.32L910,477.14H828a15.36,15.36,0,0,1,0-30.71h11.3a15.85,15.85,0,0,1,2.71.27h.15a25.28,25.28,0,0,0,25-27.8c-1.32-13.09-13.11-22.64-26.22-22.64a8.68,8.68,0,0,1-8.7-8.71v-4.3a8.69,8.69,0,0,1,8.7-8.72h13.75A24.75,24.75,0,0,0,879.3,347.3c-1.28-12.82-12.84-22.14-25.69-22.14H832.33v-.08a11.22,11.22,0,0,1,0-22.41v-.07H833v.15ZM460.15,655.56a3.5,3.5,0,0,1-3.49,3.46H419.37a3.49,3.49,0,0,1-3.49-3.52l.54-55.25c0-5.92-2.48-9.16-8.58-9.16a11.05,11.05,0,0,0-1.54.11,11.66,11.66,0,0,0-9.78,11.55c-.18,20.22-.53,44.09-.65,52.84a3.49,3.49,0,0,1-3.49,3.43H355.24a3.49,3.49,0,0,1-3.48-3.51l.36-55.26c0-5.92-2.29-9.16-8.4-9.16-.3,0-.59,0-.89,0a11.79,11.79,0,0,0-10.62,11.79l-.48,52.65a3.48,3.48,0,0,1-3.48,3.46H290.94a3.48,3.48,0,0,1-3.48-3.51l.71-93.78a3.48,3.48,0,0,1,3.48-3.46h35.12a3.48,3.48,0,0,1,3.48,3.68,3.49,3.49,0,0,0,5.27,3.18c8.36-4.91,19.76-9.15,30-9.15,12,0,21.21,3.16,26.32,11.22a3.47,3.47,0,0,0,4.91.93c8.68-6,21.75-12.15,32.89-12.15,18.51,0,31.29,9,31.1,28.62Zm131-8.42a12,12,0,0,1-12,11.88H555.53l-8.22-3.86a5.84,5.84,0,0,0-7-1.23c-8,4.16-17.67,7.38-26.53,7.38-18.51,0-31.11-9-30.92-28.62l.48-62.54a12,12,0,0,1,12-11.88h20.31a12,12,0,0,1,12,12.08L527.09,617c0,5.92,2.29,9.16,8.4,9.16a8.7,8.7,0,0,0,.89,0A11.78,11.78,0,0,0,547,614.38l.4-44.25a12,12,0,0,1,12-11.86h20.35a12,12,0,0,1,12,12.06Zm76,14.17h-5.64a2.58,2.58,0,0,0-2.59,2.56l-.34,37.43a2.58,2.58,0,0,1-2.58,2.56H616.71a2.59,2.59,0,0,1-2.59-2.6L615,560.84a2.59,2.59,0,0,1,2.59-2.57h37.3a2.59,2.59,0,0,1,2.58,2.68l0,1a2.58,2.58,0,0,0,4,2.23c5.19-3.33,14.69-8.18,26.09-8.18,29.38,0,41.59,18.32,41.59,47.51C729.16,643.37,699.21,661.31,667.15,661.31Zm123.76-17.63A15.45,15.45,0,0,1,775.46,659H762.1a15.46,15.46,0,0,1-15.46-15.57l.53-69.84a15.46,15.46,0,0,1,15.46-15.34H776a15.46,15.46,0,0,1,15.46,15.57Zm-14.52-99.15H763a15.46,15.46,0,0,1,0-30.91h13.36a15.46,15.46,0,0,1,0,30.91Z"/>
    <path class="cls-1"
          d="M670.58,586.7a10.59,10.59,0,0,0-1.5.11,11.92,11.92,0,0,0-10,11.79l-.29,30.92a2.57,2.57,0,0,0,2.83,2.59h0c14.32,0,21.57-10.49,21.57-26.9C683.18,595.29,680.12,586.7,670.58,586.7Z"/>
</svg>